<svg width="24" height="24" viewBox="0 0 24 24" fill="none" xmlns="http://www.w3.org/2000/svg">
<path d="M20.4732 19.5112C20.4675 19.5 20.4629 19.4878 20.4572 19.4766L16.2816 10.5825L18.0938 7.74C18.0994 7.73156 18.105 7.72312 18.1097 7.71469C18.2846 7.42328 18.3769 7.08984 18.3769 6.75C18.3769 6.41016 18.2846 6.07672 18.1097 5.78531C18.0966 5.76281 18.0816 5.74031 18.0666 5.71875L16.125 2.9475V1.125C16.125 0.826631 16.0065 0.540483 15.7955 0.329505C15.5846 0.118526 15.2984 0 15 0C14.7017 0 14.4155 0.118526 14.2045 0.329505C13.9936 0.540483 13.875 0.826631 13.875 1.125V2.90625L13.4644 3.41906C13.2888 3.63873 13.0659 3.81606 12.8124 3.93793C12.559 4.05979 12.2813 4.12307 12 4.12307C11.7188 4.12307 11.4411 4.05979 11.1876 3.93793C10.9341 3.81606 10.7113 3.63873 10.5357 3.41906L10.125 2.90625V1.125C10.125 0.826631 10.0065 0.540483 9.79553 0.329505C9.58455 0.118526 9.29841 0 9.00004 0C8.70167 0 8.41552 0.118526 8.20454 0.329505C7.99356 0.540483 7.87504 0.826631 7.87504 1.125V2.9475L5.93535 5.71875C5.92035 5.74031 5.90535 5.76281 5.89223 5.78531C5.71738 6.07672 5.62502 6.41016 5.62502 6.75C5.62502 7.08984 5.71738 7.42328 5.89223 7.71469C5.89223 7.72312 5.90254 7.73156 5.90816 7.74L7.71848 10.5825L3.54285 19.4766C3.53723 19.4878 3.53254 19.5 3.52691 19.5112C3.40466 19.7964 3.3551 20.1075 3.38266 20.4165C3.41021 20.7256 3.51404 21.023 3.68482 21.282C3.85559 21.5411 4.08799 21.7537 4.36117 21.9008C4.63434 22.0479 4.93976 22.125 5.25004 22.125H18.75C19.0604 22.1251 19.3659 22.0482 19.6392 21.9011C19.9125 21.7541 20.1451 21.5415 20.3159 21.2824C20.4868 21.0233 20.5907 20.7259 20.6183 20.4168C20.6459 20.1076 20.5964 19.7965 20.4741 19.5112H20.4732ZM12 6.375C12.5442 6.37611 13.0832 6.26892 13.5855 6.05968C14.0878 5.85044 14.5435 5.54334 14.926 5.15625L16.051 6.75937L14.3832 9.375H9.61691L7.95191 6.76125L9.07691 5.15812C9.45921 5.54453 9.9145 5.8511 10.4163 6.06001C10.9181 6.26891 11.4565 6.37598 12 6.375ZM5.8416 19.875L9.71441 11.625H14.2857L18.1585 19.875H5.8416Z" fill="white"/>
</svg>
