<svg width="43" height="57" viewBox="0 0 43 57" fill="none" xmlns="http://www.w3.org/2000/svg">
<path d="M42.4958 50.7867C42.4884 50.7659 42.4795 50.7457 42.4692 50.7262L31.4545 27.2679L36.4194 19.4743C36.4291 19.4603 36.438 19.4458 36.446 19.4307C36.8072 18.8286 36.9979 18.1396 36.9979 17.4375C36.9979 16.7354 36.8072 16.0464 36.446 15.4443C36.4242 15.4055 36.3976 15.3668 36.3733 15.3305L31.1857 7.91953V1.9375C31.1857 1.42364 30.9816 0.930832 30.6182 0.567481C30.2549 0.204129 29.762 0 29.2482 0C28.7343 0 28.2415 0.204129 27.8782 0.567481C27.5148 0.930832 27.3107 1.42364 27.3107 1.9375V7.85172L26.0368 9.44531C25.4922 10.1259 24.8016 10.6753 24.016 11.0529C23.2303 11.4305 22.3698 11.6265 21.4982 11.6265C20.6265 11.6265 19.7661 11.4305 18.9804 11.0529C18.1948 10.6753 17.5041 10.1259 16.9596 9.44531L15.6857 7.85172V1.9375C15.6857 1.42364 15.4816 0.930832 15.1182 0.567481C14.7549 0.204129 14.262 0 13.7482 0C13.2343 0 12.7415 0.204129 12.3782 0.567481C12.0148 0.930832 11.8107 1.42364 11.8107 1.9375V7.91953L6.62303 15.3305C6.59881 15.3668 6.57217 15.4055 6.55038 15.4443C6.18922 16.0464 5.99844 16.7354 5.99844 17.4375C5.99844 18.1396 6.18922 18.8286 6.55038 19.4307C6.55837 19.4458 6.56726 19.4603 6.57702 19.4743L11.5419 27.2679L0.527173 50.7262C0.516845 50.7457 0.507941 50.7659 0.500533 50.7867C0.248126 51.376 0.145846 52.0186 0.202856 52.6571C0.259865 53.2956 0.474383 53.91 0.827189 54.4452C1.18 54.9804 1.66007 55.4197 2.22439 55.7238C2.78871 56.0279 3.41966 56.1872 4.06069 56.1875H38.9357C39.5769 56.1876 40.2082 56.0286 40.7728 55.7247C41.3375 55.4208 41.8179 54.9815 42.1709 54.4462C42.524 53.9109 42.7388 53.2964 42.7959 52.6577C42.853 52.019 42.7508 51.3762 42.4983 50.7867H42.4958ZM9.87319 17.4375L13.8523 11.763L13.9323 11.8648C14.8398 12.9997 15.9911 13.9159 17.3008 14.5456C18.6104 15.1752 20.045 15.5021 21.4982 15.5021C22.9514 15.5021 24.3859 15.1752 25.6956 14.5456C27.0053 13.9159 28.1566 12.9997 29.0641 11.8648L29.1441 11.763L33.1232 17.4375L28.1874 25.1875H14.8114L9.87319 17.4375ZM4.06069 52.3125L14.9761 29.0625H28.0155L38.9357 52.3125H4.06069Z" fill="#9EBCF7"/>
</svg>
