<svg width="61" height="60" viewBox="0 0 61 60" fill="none" xmlns="http://www.w3.org/2000/svg">
<g clip-path="url(#clip0_1_68426)">
<path d="M54.6406 36.607L42.6875 33.914L16.8266 8.04841C16.6474 7.86936 16.4339 7.72846 16.1988 7.63421C15.9638 7.53995 15.7121 7.49429 15.4589 7.49999C15.2057 7.50568 14.9562 7.56261 14.7257 7.66734C14.4951 7.77207 14.2881 7.92243 14.1172 8.10935C8.96328 13.7437 6.125 20.8593 6.125 28.125V45C6.125 45.9945 6.52009 46.9484 7.22335 47.6516C7.92661 48.3549 8.88044 48.75 9.875 48.75H17.375C18.3696 48.75 19.3234 48.3549 20.0266 47.6516C20.7299 46.9484 21.125 45.9945 21.125 45V33.5297C21.7086 33.8695 22.2828 34.2328 22.8453 34.6172C27.1015 37.5382 30.4062 41.6448 32.3492 46.4273C32.6299 47.1176 33.1112 47.7079 33.7308 48.1219C34.3503 48.5359 35.0798 48.7547 35.825 48.75H56.75C57.7446 48.75 58.6984 48.3549 59.4016 47.6516C60.1049 46.9484 60.5 45.9945 60.5 45V43.8914C60.5043 42.19 59.9249 40.5387 58.8585 39.213C57.7922 37.8873 56.3034 36.9674 54.6406 36.607ZM17.375 45H9.875V30.0679C12.4439 30.2495 14.9715 30.8119 17.375 31.7367V45ZM56.75 45H35.8156C33.5965 39.5464 29.8259 34.8639 24.9711 31.5328C20.5283 28.4615 15.3331 26.6579 9.94297 26.3156C10.3657 21.1277 12.3396 16.187 15.6078 12.1359L40.4234 36.9515C40.6746 37.2018 40.9915 37.3757 41.3375 37.4531L53.8156 40.2656C54.6477 40.4426 55.3935 40.9005 55.9278 41.5625C56.4622 42.2244 56.7525 43.0501 56.75 43.9007V45Z" fill="#9EBCF7"/>
</g>
<defs>
<clipPath id="clip0_1_68426">
<rect width="60" height="60" fill="white" transform="translate(0.5)"/>
</clipPath>
</defs>
</svg>
